<mxfile host="app.diagrams.net" agent="Mozilla/5.0 (Macintosh; Intel Mac OS X 10_15_7) AppleWebKit/605.1.15 (KHTML, like Gecko) Version/18.3 Safari/605.1.15" version="26.0.14">
  <diagram name="Page-1" id="yFw0HO9sxsPJhwvqOeSW">
    <mxGraphModel dx="1194" dy="647" grid="1" gridSize="10" guides="1" tooltips="1" connect="1" arrows="1" fold="1" page="1" pageScale="1" pageWidth="850" pageHeight="1100" math="0" shadow="0">
      <root>
        <mxCell id="0" />
        <mxCell id="1" parent="0" />
        <mxCell id="97ITbs4HvPJSa4xFbKXY-1" value="Actor" style="shape=umlActor;verticalLabelPosition=bottom;verticalAlign=top;html=1;outlineConnect=0;" vertex="1" parent="1">
          <mxGeometry x="130" y="210" width="60" height="130" as="geometry" />
        </mxCell>
        <mxCell id="97ITbs4HvPJSa4xFbKXY-2" value="" style="rounded=0;whiteSpace=wrap;html=1;" vertex="1" parent="1">
          <mxGeometry x="220" y="180" width="480" height="310" as="geometry" />
        </mxCell>
        <mxCell id="97ITbs4HvPJSa4xFbKXY-3" value="" style="endArrow=none;html=1;rounded=0;" edge="1" parent="1">
          <mxGeometry width="50" height="50" relative="1" as="geometry">
            <mxPoint x="200" y="280" as="sourcePoint" />
            <mxPoint x="250" y="230" as="targetPoint" />
          </mxGeometry>
        </mxCell>
        <mxCell id="97ITbs4HvPJSa4xFbKXY-4" value="Enters Level" style="ellipse;whiteSpace=wrap;html=1;" vertex="1" parent="1">
          <mxGeometry x="250" y="190" width="120" height="80" as="geometry" />
        </mxCell>
        <mxCell id="97ITbs4HvPJSa4xFbKXY-6" value="Enemies Interact" style="ellipse;whiteSpace=wrap;html=1;" vertex="1" parent="1">
          <mxGeometry x="470" y="190" width="120" height="80" as="geometry" />
        </mxCell>
        <mxCell id="97ITbs4HvPJSa4xFbKXY-11" value="&amp;lt;&amp;lt; Extends &amp;gt;&amp;gt;" style="endArrow=open;endSize=12;dashed=1;html=1;rounded=0;exitX=1;exitY=0.5;exitDx=0;exitDy=0;entryX=0;entryY=0.5;entryDx=0;entryDy=0;" edge="1" parent="1" source="97ITbs4HvPJSa4xFbKXY-4" target="97ITbs4HvPJSa4xFbKXY-6">
          <mxGeometry width="160" relative="1" as="geometry">
            <mxPoint x="320" y="330" as="sourcePoint" />
            <mxPoint x="480" y="330" as="targetPoint" />
            <mxPoint as="offset" />
          </mxGeometry>
        </mxCell>
        <mxCell id="97ITbs4HvPJSa4xFbKXY-12" value="Movement" style="ellipse;whiteSpace=wrap;html=1;" vertex="1" parent="1">
          <mxGeometry x="240" y="320" width="120" height="80" as="geometry" />
        </mxCell>
        <mxCell id="97ITbs4HvPJSa4xFbKXY-13" value="Attack" style="ellipse;whiteSpace=wrap;html=1;" vertex="1" parent="1">
          <mxGeometry x="390" y="380" width="120" height="80" as="geometry" />
        </mxCell>
        <mxCell id="97ITbs4HvPJSa4xFbKXY-14" value="Health" style="ellipse;whiteSpace=wrap;html=1;" vertex="1" parent="1">
          <mxGeometry x="540" y="320" width="120" height="80" as="geometry" />
        </mxCell>
        <mxCell id="97ITbs4HvPJSa4xFbKXY-15" value="&amp;lt;&amp;lt; Includes &amp;gt;&amp;gt;" style="endArrow=open;endSize=12;dashed=1;html=1;rounded=0;exitX=0;exitY=1;exitDx=0;exitDy=0;entryX=1;entryY=0;entryDx=0;entryDy=0;" edge="1" parent="1" source="97ITbs4HvPJSa4xFbKXY-6" target="97ITbs4HvPJSa4xFbKXY-12">
          <mxGeometry width="160" relative="1" as="geometry">
            <mxPoint x="380" y="240" as="sourcePoint" />
            <mxPoint x="480" y="240" as="targetPoint" />
            <mxPoint as="offset" />
          </mxGeometry>
        </mxCell>
        <mxCell id="97ITbs4HvPJSa4xFbKXY-16" value="&amp;lt;&amp;lt; Includes &amp;gt;&amp;gt;" style="endArrow=open;endSize=12;dashed=1;html=1;rounded=0;exitX=0.5;exitY=1;exitDx=0;exitDy=0;entryX=0.5;entryY=0;entryDx=0;entryDy=0;" edge="1" parent="1" source="97ITbs4HvPJSa4xFbKXY-6" target="97ITbs4HvPJSa4xFbKXY-13">
          <mxGeometry width="160" relative="1" as="geometry">
            <mxPoint x="498" y="268" as="sourcePoint" />
            <mxPoint x="352" y="342" as="targetPoint" />
            <mxPoint as="offset" />
          </mxGeometry>
        </mxCell>
        <mxCell id="97ITbs4HvPJSa4xFbKXY-17" value="&amp;lt;&amp;lt; Includes &amp;gt;&amp;gt;" style="endArrow=open;endSize=12;dashed=1;html=1;rounded=0;exitX=1;exitY=1;exitDx=0;exitDy=0;entryX=0.5;entryY=0;entryDx=0;entryDy=0;" edge="1" parent="1" source="97ITbs4HvPJSa4xFbKXY-6" target="97ITbs4HvPJSa4xFbKXY-14">
          <mxGeometry width="160" relative="1" as="geometry">
            <mxPoint x="508" y="278" as="sourcePoint" />
            <mxPoint x="362" y="352" as="targetPoint" />
            <mxPoint as="offset" />
          </mxGeometry>
        </mxCell>
      </root>
    </mxGraphModel>
  </diagram>
</mxfile>
